<?xml version="1.0" standalone="no"?><!DOCTYPE svg PUBLIC "-//W3C//DTD SVG 1.1//EN" "http://www.w3.org/Graphics/SVG/1.1/DTD/svg11.dtd"><svg t="1757296617504" class="icon" viewBox="0 0 1024 1024" version="1.1" xmlns="http://www.w3.org/2000/svg" p-id="5281" width="260" height="260" xmlns:xlink="http://www.w3.org/1999/xlink"><path d="M121.927799 670.606241c9.668274 18.792015 14.50441 39.196842 26.31233901 56.913383 22.55167801 42.954406 53.689959 82.685387 90.20471199 116.512954 19.329253 12.347266 35.435181 27.917955 54.761336 40.268219 17.18240201 11.275889 35.976516 20.402728 53.693057 30.067904 27.381717 10.738651 53.693057 22.011342 82.153346 28.993429 11.27379 1.072476 20.935868 6.441752 32.213756 6.441752L507.975317 955.173258c24.160292 2.684188 49.397157 0.537237 74.09888301-1.072476 55.297574-4.2969 104.159592-22.551678 153.01951199-44.027881 84.295101-41.878932 160.0005-114.363005 201.344293-200.269818 31.14028-64.968846 48.322682-139.061633 46.175831-209.935993 0-9.12893799-2.685187-22.550678-1.612711-31.14028-4.29480101-16.646164-3.756564-32.213756-8.054463-47.787543C947.176556 301.206985 870.394584 189.529168 757.642291 126.708172c-20.401729-15.033452-44.024783-21.476204-66.57756-30.60714-79.459965-30.064806-179.870188-35.432083-263.62905001-12.885502-119.730282 27.385815-230.339721 113.827766-285.63729499 227.12039399-1.080571 1.070377-2.685187 1.070377-1.613711 3.21932701C86.49161801 422.012741 77.369875 554.095386 121.927799 670.606241zM634.150349 757.050291c-13.956879 11.813126-31.139281 21.477203-52.077248 16.645165-15.03755-3.758663-27.92615-14.497214-35.979514-28.455193-7.514128-13.959977-10.198316-37.049891 0-51.00687 9.134035-15.572688 26.845479-28.458191 45.103355-28.996527 20.942064 1.075474 43.488645 10.203413 51.542009 31.680616C654.017938 716.781073 647.574187 739.870987 634.150349 757.050291zM151.458466 337.180403c35.440278-82.14815 108.997826-161.076074 190.070502-199.735678 25.236865-13.42174 51.008869-25.771005 78.92882301-30.067904 12.347266 0 23.086916-3.220326 35.44027799-3.220326l32.214755 3.220326c6.971794 1.611712 13.42174 6.445849 20.936868 4.834137 36.508557 5.905514 70.339221 25.773103 98.25507801 52.081345 51.00687 52.61758299 71.411597 130.470932 51.00686999 198.659105-10.20341299 33.826467-30.600045 66.041322-57.44552399 90.202713-32.75509 23.088915-66.045419 44.565119-97.72603501 70.87336-38.119269 27.383716-80.537537 56.914383-98.790317 100.940265-15.031354 22.01444-17.716541 48.85992-22.551678 75.168161-8.053464 78.390586 30.605142 159.465361 101.480601 200.272916 13.957978 9.663077 30.600045 13.959977 45.103355 22.013441 16.642067 2.68518701 31.136183 9.66307699 47.243111 9.663077 1.615809 1.075474-0.535239 1.075474 0.540335 1.609713-38.658605 6.44375-88.592 2.149949-129.401554-6.440752-109.527869-23.088915-213.687461-96.108227-271.677318-193.828066l-16.643066-29.530667C100.99193 595.43708 98.307742 446.175132 151.458466 337.180403zM418.848177 319.461763c-6.984086-20.93996601-2.150948-45.638594 14.493117-61.208184 15.572688-11.275889 35.439278-20.939966 55.306768-13.960976 15.03135399 5.369276 30.598946 16.646164 38.119269 30.60614099 6.984086 15.03135399 4.835136 34.362705-2.149949 48.85992001-10.199315 19.864491-32.215854 27.380718-51.00787 34.361706C449.449222 358.656607 427.972019 340.937967 418.848177 319.461763zM363.663127 11.803832l0.53314001-0.53314 1.60971298 2.148949C365.266645 12.880406 364.732506 12.345167 363.663127 11.803832zM428.092737 1.06728L427.552402 1.06728 427.552402 1.06728ZM433.997252 0.531141c0-0.53314 0.53314-0.53314 1.608614-0.53314C435.06663 1.06728 434.530392 0.531141 433.997252 0.531141z" fill="#13c2c2" p-id="5282"></path></svg>